<svg width="18" height="21" viewBox="0 0 18 21" fill="none" xmlns="http://www.w3.org/2000/svg">
<path d="M9.91666 1.82666C11.3652 0.00886202 13.379 0 13.379 0C13.379 0 13.6786 1.70903 12.2395 3.35538C10.703 5.11331 8.95647 4.82565 8.95647 4.82565C8.95647 4.82565 8.62852 3.4431 9.91666 1.82666ZM9.1407 6.02283C9.88591 6.02283 11.269 5.04752 13.0692 5.04752C16.1681 5.04752 17.3871 7.14693 17.3871 7.14693C17.3871 7.14693 15.0028 8.30759 15.0028 11.1239C15.0028 14.3009 17.973 15.3958 17.973 15.3958C17.973 15.3958 15.8968 20.9598 13.0923 20.9598C11.8042 20.9598 10.8028 20.1333 9.44565 20.1333C8.06259 20.1333 6.6901 20.9906 5.79618 20.9906C3.23529 20.9907 0 15.7126 0 11.4699C0 7.29572 2.73846 5.106 5.30703 5.106C6.97683 5.106 8.27261 6.02283 9.1407 6.02283Z" fill="black"/>
</svg>
