<svg width="180" height="180" viewBox="0 0 180 180" fill="none" xmlns="http://www.w3.org/2000/svg">
<g clip-path="url(#clip0_61_304)">
<rect width="180" height="180" fill="#14191B"/>
<rect x="121" y="23" width="33.4286" height="101" rx="3" stroke="url(#paint0_linear_61_304)" stroke-width="2"/>
<rect x="73" y="39" width="33.4286" height="95.5" rx="3" stroke="url(#paint1_linear_61_304)" stroke-width="2"/>
<rect x="24.9913" y="47.2829" width="33.4286" height="90" rx="3" transform="rotate(-0.5 24.9913 47.2829)" stroke="url(#paint2_linear_61_304)" stroke-width="2"/>
<path d="M146.696 82.0098C149.443 81.9106 151.441 82.5661 152.778 84.0312C154.142 85.5248 155 88.0538 155 92.1055C155 124.842 125.909 155 90 155C54.0145 155 25 128.369 25 95.7051C25 91.5367 25.0469 88.6944 25.1953 86.8838C25.2424 86.3089 25.3007 85.8649 25.3613 85.5293C25.5494 85.7706 25.7709 86.0807 26.0283 86.4668C26.4266 87.0641 26.8821 87.7905 27.4131 88.6328C27.9408 89.47 28.5371 90.4114 29.2061 91.4199C34.5478 99.4733 44.6631 112.004 63.417 112.004C72.7375 112.004 83.2329 108.675 93.6484 104.29C104.064 99.9052 114.563 94.3896 123.809 89.9697C128.448 87.7519 132.776 85.8073 136.659 84.3916C140.555 82.9716 143.936 82.1095 146.696 82.0098Z" stroke="#1CA187" stroke-width="2"/>
<path d="M77.9864 90.1367H57.3145V80.9961H77.9864V90.1367ZM77.9864 73.6484H57.3848C56.1427 73.6484 55.2052 73.9648 54.5723 74.5977C53.9395 75.207 53.6231 76.1094 53.6231 77.3047V119H44.4825V77.3047C44.4825 75.7344 44.6817 74.3281 45.0802 73.0859C45.4786 71.8438 46.0059 70.7539 46.6622 69.8164C47.3419 68.8555 48.1153 68.0469 48.9825 67.3906C49.8497 66.7109 50.752 66.1602 51.6895 65.7383C52.6505 65.3164 53.6114 65.0117 54.5723 64.8242C55.5333 64.6133 56.4473 64.5078 57.3145 64.5078H77.9864V73.6484ZM137.416 89.6797C137.416 91.7656 137.158 93.6289 136.643 95.2695C136.127 96.9102 135.424 98.3633 134.533 99.6289C133.666 100.871 132.658 101.938 131.51 102.828C130.361 103.719 129.154 104.445 127.889 105.008C126.646 105.57 125.381 105.98 124.092 106.238C122.826 106.496 121.631 106.625 120.506 106.625H99.8339V97.4844H120.506C121.678 97.3906 122.732 97.1562 123.67 96.7812C124.631 96.3828 125.451 95.8555 126.131 95.1992C126.81 94.543 127.338 93.7578 127.713 92.8438C128.088 91.9062 128.275 90.8516 128.275 89.6797V85.5312C128.158 84.3828 127.912 83.3281 127.537 82.3672C127.162 81.4062 126.646 80.5859 125.99 79.9062C125.357 79.2266 124.584 78.6992 123.67 78.3242C122.756 77.9258 121.701 77.7266 120.506 77.7266H99.9042C98.6855 77.7266 97.7597 78.043 97.1269 78.6758C96.4941 79.3086 96.1777 80.2227 96.1777 81.418V119H87.037V81.418C87.037 79.0742 87.4589 77.082 88.3027 75.4414C89.1698 73.8008 90.2363 72.4766 91.5019 71.4688C92.7909 70.4609 94.1855 69.7344 95.6855 69.2891C97.1855 68.8203 98.5683 68.5859 99.8339 68.5859H120.506C122.568 68.5859 124.42 68.8555 126.06 69.3945C127.701 69.9102 129.143 70.6133 130.385 71.5039C131.65 72.3711 132.717 73.3789 133.584 74.5273C134.475 75.6758 135.201 76.8828 135.764 78.1484C136.35 79.3906 136.771 80.6562 137.029 81.9453C137.287 83.2109 137.416 84.4062 137.416 85.5312V89.6797Z" fill="white"/>
</g>
<defs>
<linearGradient id="paint0_linear_61_304" x1="137.714" y1="24" x2="137.714" y2="123" gradientUnits="userSpaceOnUse">
<stop offset="0.210069" stop-color="#1CA187"/>
<stop offset="0.695069" stop-color="#14191B"/>
<stop offset="1" stop-color="#14191B"/>
</linearGradient>
<linearGradient id="paint1_linear_61_304" x1="89.7143" y1="40" x2="127.798" y2="121.246" gradientUnits="userSpaceOnUse">
<stop offset="0.333757" stop-color="#1CA187"/>
<stop offset="0.683577" stop-color="#14191B"/>
<stop offset="1" stop-color="#14191B"/>
</linearGradient>
<linearGradient id="paint2_linear_61_304" x1="55.0654" y1="48.2742" x2="26.5003" y2="135.665" gradientUnits="userSpaceOnUse">
<stop offset="0.210069" stop-color="#1CA187"/>
<stop offset="0.695069" stop-color="#14191B"/>
<stop offset="1" stop-color="#14191B"/>
</linearGradient>
<clipPath id="clip0_61_304">
<rect width="180" height="180" fill="white"/>
</clipPath>
</defs>
</svg>
